<?xml version="1.0" standalone="no"?>
<!DOCTYPE svg PUBLIC "-//W3C//DTD SVG 20010904//EN"
 "http://www.w3.org/TR/2001/REC-SVG-20010904/DTD/svg10.dtd">
<svg version="1.0" xmlns="http://www.w3.org/2000/svg"
 width="512.000000pt" height="512.000000pt" viewBox="0 0 512.000000 512.000000"
 preserveAspectRatio="xMidYMid meet">

<g transform="translate(0.000000,512.000000) scale(0.100000,-0.100000)"
fill="#000000" stroke="none">
<path d="M255 4306 c-41 -18 -83 -69 -90 -109 -3 -18 -5 -154 -3 -304 3 -256
4 -273 24 -299 39 -53 71 -69 134 -69 63 0 95 16 134 69 19 25 21 44 24 216
l3 189 189 3 c172 3 191 5 216 24 53 39 69 71 69 134 0 63 -16 95 -69 134 -26
20 -42 21 -314 23 -223 2 -294 0 -317 -11z"/>
<path d="M4255 4306 c-94 -41 -124 -169 -58 -247 45 -53 73 -59 267 -59 l175
0 3 -189 c3 -173 5 -192 24 -217 39 -53 71 -69 134 -69 63 0 95 16 134 69 20
26 21 40 21 326 0 286 -1 300 -21 326 -11 15 -33 37 -48 48 -26 20 -42 21
-314 23 -223 2 -294 0 -317 -11z"/>
<path d="M2380 3913 c-232 -22 -489 -82 -705 -164 -174 -65 -440 -199 -604
-304 -391 -248 -799 -620 -886 -807 -29 -61 -31 -94 -10 -145 17 -41 342 -369
480 -485 524 -438 1047 -696 1590 -784 137 -23 466 -25 600 -5 553 82 1089
343 1620 790 118 99 394 370 446 437 26 34 43 67 46 92 10 78 -7 104 -211 308
-105 105 -231 224 -281 266 -570 475 -1137 741 -1704 798 -96 9 -300 11 -381
3z m368 -324 c561 -62 1172 -387 1717 -913 l120 -116 -100 -98 c-639 -623
-1367 -966 -1995 -939 -598 26 -1240 351 -1850 934 l-124 119 114 115 c261
260 575 484 912 650 416 204 833 290 1206 248z"/>
<path d="M2415 3510 c-205 -33 -384 -126 -535 -279 -129 -130 -213 -279 -257
-457 -27 -110 -24 -335 5 -444 50 -182 122 -309 247 -436 100 -101 145 -134
261 -192 291 -146 629 -133 916 35 112 65 266 219 329 328 101 174 133 294
133 495 0 153 -17 246 -66 365 -95 226 -297 428 -523 523 -141 58 -361 85
-510 62z m280 -325 c214 -44 409 -223 476 -435 70 -223 8 -469 -161 -641 -249
-251 -649 -251 -901 0 -197 198 -243 481 -120 735 127 260 418 401 706 341z"/>
<path d="M255 1586 c-41 -18 -83 -69 -90 -109 -3 -18 -5 -154 -3 -304 3 -256
4 -273 24 -299 11 -15 33 -37 48 -48 26 -20 40 -21 326 -21 286 0 300 1 326
21 53 39 69 71 69 134 0 63 -16 95 -69 134 -25 19 -44 21 -216 24 l-189 3 -3
189 c-3 206 -6 215 -70 263 -33 25 -113 32 -153 13z"/>
<path d="M4735 1586 c-37 -17 -70 -52 -84 -89 -6 -16 -11 -103 -11 -202 l0
-174 -189 -3 c-173 -3 -192 -5 -217 -24 -53 -39 -69 -71 -69 -134 0 -63 16
-95 69 -134 26 -20 40 -21 326 -21 286 0 300 1 326 21 15 11 37 33 48 48 20
26 21 40 21 326 0 286 -1 300 -21 326 -11 15 -32 37 -46 47 -34 25 -113 32
-153 13z"/>
</g>
</svg>
