<?xml version="1.0" standalone="no"?>
<!DOCTYPE svg PUBLIC "-//W3C//DTD SVG 20010904//EN"
 "http://www.w3.org/TR/2001/REC-SVG-20010904/DTD/svg10.dtd">
<svg version="1.0" xmlns="http://www.w3.org/2000/svg"
 width="512.000000pt" height="512.000000pt" viewBox="0 0 512.000000 512.000000"
 preserveAspectRatio="xMidYMid meet">

<g transform="translate(0.000000,512.000000) scale(0.100000,-0.100000)"
fill="#000000" stroke="none">
<path d="M2404 5101 c-49 -22 -88 -70 -103 -126 -6 -23 -11 -133 -11 -261 0
-165 -3 -224 -12 -231 -7 -5 -62 -27 -123 -47 -60 -21 -155 -60 -211 -87 -55
-27 -109 -49 -119 -49 -11 0 -90 71 -184 165 -203 201 -246 223 -346 176 -49
-23 -549 -522 -564 -564 -16 -42 -13 -124 5 -160 9 -18 91 -107 182 -199 l165
-167 -60 -128 c-34 -70 -75 -171 -93 -223 -18 -52 -37 -100 -42 -107 -7 -9
-80 -13 -258 -15 l-248 -3 -43 -30 c-23 -16 -52 -48 -63 -70 -20 -38 -21 -54
-21 -415 0 -361 1 -377 21 -415 11 -22 40 -53 63 -70 l43 -30 248 -3 c178 -2
251 -6 258 -15 5 -7 24 -55 42 -107 18 -52 59 -153 93 -223 l60 -128 -165
-167 c-91 -92 -173 -181 -182 -199 -18 -36 -21 -118 -5 -160 15 -42 515 -541
564 -564 100 -47 143 -25 346 176 94 94 173 165 184 165 10 0 64 -22 119 -49
56 -27 151 -66 211 -87 61 -20 115 -41 122 -46 8 -7 13 -80 15 -251 3 -276 8
-296 87 -352 l43 -30 373 -3 c420 -3 464 2 593 63 145 69 252 178 322 327 31
66 60 178 60 234 l0 31 73 6 c219 19 456 122 635 276 243 209 383 520 384 851
1 274 -84 516 -255 723 l-39 47 42 50 c93 111 179 282 219 434 26 97 26 137 3
164 -49 59 -123 20 -136 -72 -10 -66 -61 -208 -99 -276 -70 -127 -165 -235
-260 -300 -66 -43 -215 -113 -231 -107 -8 3 -17 18 -20 34 -20 78 -112 179
-202 220 -48 22 -57 23 -81 11 -15 -7 -32 -25 -37 -39 -16 -46 -1 -75 59 -108
171 -97 181 -312 20 -431 -50 -37 -55 -44 -55 -79 0 -74 68 -94 143 -42 83 58
134 128 161 221 16 54 18 56 63 69 61 16 195 80 253 120 l45 31 29 -32 c216
-246 289 -638 178 -958 -50 -145 -131 -268 -248 -380 -166 -158 -367 -255
-580 -279 -92 -10 -206 -2 -272 20 -31 10 -32 12 -25 47 19 91 -6 211 -54 264
-22 24 -78 23 -103 -2 -24 -24 -26 -60 -4 -103 20 -38 22 -123 4 -157 -36 -71
-90 -102 -179 -105 -53 -2 -68 -7 -83 -25 -24 -29 -23 -75 1 -99 46 -46 193
-30 280 30 l44 31 66 -21 c37 -12 74 -21 84 -21 27 0 31 -26 18 -97 -20 -108
-61 -186 -143 -267 -123 -122 -220 -156 -450 -156 l-128 0 0 2410 0 2410 135
0 c155 0 215 -10 305 -53 87 -41 199 -151 239 -237 30 -63 58 -187 49 -212 -3
-7 -32 -19 -64 -26 -69 -14 -186 -71 -226 -109 -38 -36 -38 -83 -2 -112 36
-28 61 -26 112 9 80 54 146 72 275 78 125 5 197 -5 307 -40 87 -28 212 -90
285 -143 70 -50 197 -179 244 -247 53 -78 110 -207 134 -305 13 -51 32 -102
42 -113 27 -30 78 -27 104 6 26 33 26 42 2 137 -92 359 -342 643 -687 780 -94
38 -264 77 -333 77 -40 0 -41 1 -41 33 0 60 -30 171 -64 242 -71 150 -172 251
-318 320 -125 60 -170 65 -578 65 -335 0 -368 -2 -406 -19z m334 -678 l-3
-548 -69 -7 c-149 -15 -297 -59 -441 -131 -99 -49 -220 -130 -229 -152 -12
-32 -6 -72 14 -90 34 -31 69 -22 170 43 150 98 334 165 488 179 l72 6 0 -1162
0 -1161 -42 0 c-98 1 -285 55 -413 121 -327 167 -559 482 -621 844 -24 135
-15 358 19 488 30 111 106 278 166 365 46 65 50 88 20 126 -28 36 -76 36 -111
-1 -100 -107 -210 -363 -243 -563 -19 -121 -19 -322 0 -436 32 -187 117 -395
221 -542 117 -164 308 -328 484 -417 142 -71 336 -127 475 -137 l40 -3 3 -547
2 -548 -134 0 c-109 0 -138 3 -150 16 -14 13 -16 51 -16 258 l0 242 -26 41
c-33 50 -57 64 -186 109 -56 20 -159 62 -227 95 -208 99 -224 94 -466 -150
-82 -83 -157 -151 -165 -151 -23 0 -500 481 -500 504 0 12 65 86 163 185 228
231 231 241 134 443 -30 62 -74 168 -97 235 -46 132 -77 176 -142 199 -22 8
-112 13 -265 13 -196 1 -234 3 -247 17 -14 13 -16 60 -16 354 0 294 2 341 16
354 13 14 51 16 247 17 153 0 243 5 265 13 65 23 96 67 142 199 23 67 67 172
97 234 98 201 94 213 -134 444 -97 99 -163 173 -163 185 0 23 477 504 500 504
8 0 83 -68 165 -151 242 -244 258 -249 466 -150 68 33 171 75 227 95 129 45
153 59 186 109 l26 41 0 242 c0 207 2 245 16 258 12 13 41 16 150 16 l134 0
-2 -547z"/>
<path d="M3550 3685 c-180 -51 -294 -230 -260 -410 22 -115 72 -169 134 -146
46 18 53 51 27 130 -16 49 -20 79 -16 107 11 63 50 121 102 151 40 23 59 27
127 29 69 1 81 4 98 23 24 31 23 64 -4 96 -19 21 -34 26 -88 30 -41 3 -85 -1
-120 -10z"/>
</g>
</svg>
