<?xml version="1.0" standalone="no"?>
<!DOCTYPE svg PUBLIC "-//W3C//DTD SVG 20010904//EN"
 "http://www.w3.org/TR/2001/REC-SVG-20010904/DTD/svg10.dtd">
<svg version="1.0" xmlns="http://www.w3.org/2000/svg"
 width="512.000000pt" height="512.000000pt" viewBox="0 0 512.000000 512.000000"
 preserveAspectRatio="xMidYMid meet">

<g transform="translate(0.000000,512.000000) scale(0.100000,-0.100000)"
fill="#000000" stroke="none">
<path d="M2580 4921 c-89 -29 -141 -60 -206 -125 -97 -97 -144 -210 -144 -347
0 -271 218 -489 489 -489 140 0 248 45 347 144 97 97 144 210 144 347 0 222
-151 418 -365 474 -78 20 -196 18 -265 -4z m312 -98 c88 -41 160 -113 201
-201 30 -62 32 -75 32 -172 0 -97 -2 -110 -32 -172 -41 -88 -113 -160 -201
-201 -62 -30 -75 -32 -172 -32 -97 0 -110 2 -172 32 -88 41 -160 113 -201 201
-30 62 -32 75 -32 172 0 97 2 110 32 172 51 108 140 185 258 225 25 8 75 12
130 10 77 -2 100 -7 157 -34z"/>
<path d="M2421 3894 c-85 -23 -167 -72 -225 -135 -79 -85 -107 -149 -133 -304
-7 -40 -45 -109 -183 -330 l-174 -280 -124 -345 c-118 -331 -123 -348 -120
-412 5 -87 39 -141 117 -180 95 -48 186 -34 260 40 43 44 51 61 114 242 97
278 93 269 95 184 0 -43 9 -97 22 -134 l21 -62 -41 -431 -41 -431 -197 -390
-197 -391 0 -80 c0 -62 5 -89 22 -120 31 -58 81 -105 142 -133 46 -21 64 -24
126 -20 80 5 136 31 188 86 28 29 434 817 455 883 6 19 21 135 32 259 11 124
24 238 28 253 13 50 166 -390 310 -889 137 -474 142 -485 225 -545 53 -38 108
-52 182 -46 73 5 116 25 173 80 48 47 82 125 82 192 0 26 -50 219 -126 482
-108 375 -150 503 -293 891 -93 248 -167 452 -166 452 2 0 71 -74 153 -164
163 -176 192 -197 282 -204 71 -5 148 33 193 96 27 37 32 54 35 115 3 61 0 79
-20 114 -13 23 -115 142 -227 265 l-204 222 -98 202 -98 203 6 163 c3 103 1
185 -6 223 -33 180 -176 334 -354 381 -66 18 -167 17 -236 -2z m230 -80 c112
-33 199 -109 253 -223 l31 -66 -3 -375 c-2 -206 -7 -490 -11 -630 l-8 -254
167 -452 c145 -389 186 -513 294 -890 69 -242 126 -454 126 -472 0 -141 -156
-234 -287 -171 -79 38 -85 52 -220 521 -111 388 -229 732 -398 1169 -5 13 -25
18 -93 21 -66 3 -100 10 -142 30 -68 31 -142 96 -176 154 -47 81 -55 125 -54
316 l0 177 217 348 c119 191 222 364 229 383 53 144 -60 301 -216 300 -43 -1
-105 -22 -131 -46 -27 -24 -24 -9 7 31 34 44 121 104 186 126 66 23 157 24
229 3z m-210 -217 c19 -12 42 -38 52 -57 37 -71 29 -87 -222 -494 l-232 -375
-111 -313 c-61 -172 -119 -325 -129 -339 -28 -40 -83 -62 -138 -56 -37 4 -52
13 -83 46 -60 64 -57 81 80 466 l117 330 229 370 c126 204 236 379 245 389 49
58 133 73 192 33z m919 -1160 c115 -125 213 -239 216 -253 4 -14 4 -46 1 -70
-12 -111 -150 -161 -235 -86 -38 34 -281 299 -317 347 l-27 35 7 263 7 264 69
-136 69 -136 210 -228z m-1085 -459 c63 -38 125 -59 195 -66 l65 -7 3 -38 c2
-20 -11 -182 -27 -360 l-31 -322 -206 -410 c-114 -225 -217 -424 -230 -441
-31 -43 -99 -74 -158 -74 -110 0 -196 90 -196 204 0 37 29 101 197 432 l197
388 37 381 c21 209 38 387 39 395 0 9 14 1 38 -22 20 -20 55 -47 77 -60z"/>
</g>
</svg>
